<svg width="26" height="22" viewBox="0 0 26 22" fill="none" xmlns="http://www.w3.org/2000/svg">
<path d="M1.00098 1.99902H3.99297C4.19906 1.99933 4.39966 2.06546 4.56551 2.18779C4.73137 2.31011 4.85381 2.48222 4.91498 2.67902L8.25098 13.318C8.31228 13.5147 8.43475 13.6868 8.60058 13.8091C8.7664 13.9314 8.96693 13.9976 9.17297 13.998H21.112C21.3059 13.9983 21.4953 13.9403 21.6558 13.8315C21.8163 13.7227 21.9404 13.5682 22.012 13.388L24.934 6.08802C24.9937 5.94053 25.0164 5.78063 24.9999 5.62234C24.9834 5.46406 24.9283 5.31225 24.8394 5.18024C24.7506 5.04823 24.6307 4.94005 24.4902 4.86521C24.3498 4.79037 24.1931 4.75116 24.034 4.75102L5.55398 4.71802" stroke="black" stroke-width="2" stroke-miterlimit="10" stroke-linecap="round" stroke-linejoin="round"/>
<path d="M11 20.999C12.1046 20.999 13 20.1036 13 18.999C13 17.8945 12.1046 16.999 11 16.999C9.89543 16.999 9 17.8945 9 18.999C9 20.1036 9.89543 20.999 11 20.999Z" stroke="black" stroke-width="2" stroke-miterlimit="10" stroke-linecap="round"/>
<path d="M19.165 20.999C20.2696 20.999 21.165 20.1036 21.165 18.999C21.165 17.8945 20.2696 16.999 19.165 16.999C18.0605 16.999 17.165 17.8945 17.165 18.999C17.165 20.1036 18.0605 20.999 19.165 20.999Z" stroke="black" stroke-width="2" stroke-miterlimit="10" stroke-linecap="round"/>
</svg>
