<svg width="82" height="24" viewBox="0 0 82 24" fill="none" xmlns="http://www.w3.org/2000/svg">
<path d="M11.986 23.0429C14.1704 23.0413 16.3054 22.392 18.1208 21.1771C19.9362 19.9622 21.3507 18.2362 22.1852 16.2175C23.0197 14.1987 23.2369 11.9778 22.8093 9.83563C22.3816 7.69344 21.3284 5.7262 19.7827 4.18261C18.237 2.63902 16.2683 1.58841 14.1255 1.16368C11.9828 0.738941 9.76217 0.959135 7.74455 1.79641C5.72693 2.63369 4.00289 4.05046 2.79045 5.86755C1.578 7.68464 0.931602 9.82043 0.932986 12.0049C0.933905 13.4554 1.22053 14.8916 1.77651 16.2313C2.33248 17.5711 3.14691 18.7882 4.17329 19.8132C5.19967 20.8382 6.41789 21.6509 7.7584 22.2051C9.09891 22.7593 10.5354 23.044 11.986 23.0429Z" fill="#AF0030"/>
<path d="M11.542 7.15311V16.8431H14.622V15.9711H12.43V7.1521L11.542 7.15311Z" fill="white"/>
<path d="M8.45606 9.79696C8.71829 9.79736 8.97474 9.71993 9.19294 9.57449C9.41114 9.42905 9.58128 9.22214 9.68181 8.97995C9.78234 8.73775 9.80875 8.47117 9.75769 8.21396C9.70663 7.95675 9.58039 7.72049 9.39497 7.53506C9.20954 7.34964 8.97327 7.22339 8.71606 7.17233C8.45885 7.12127 8.19227 7.14769 7.95007 7.24823C7.70788 7.34876 7.50096 7.51889 7.35552 7.73709C7.21008 7.95529 7.13266 8.21174 7.13306 8.47397C7.13359 8.82469 7.27314 9.16091 7.52113 9.4089C7.76913 9.6569 8.10534 9.79644 8.45606 9.79696Z" fill="white"/>
<path d="M12.429 2.7569C12.313 2.7519 12.094 2.7439 11.989 2.7439C10.1591 2.7433 8.37023 3.28541 6.84849 4.30161C5.32676 5.3178 4.14056 6.76245 3.43995 8.45285C2.73933 10.1433 2.55576 12.0035 2.91245 13.7982C3.26915 15.593 4.15008 17.2416 5.44384 18.5356C6.7376 19.8297 8.38606 20.711 10.1807 21.0681C11.9754 21.4251 13.8356 21.242 15.5262 20.5417C17.2168 19.8415 18.6617 18.6556 19.6782 17.1341C20.6947 15.6125 21.2372 13.8237 21.237 11.9939V11.5849H14.63V12.4359H20.356V12.5689C20.2443 14.1989 19.6589 15.7607 18.6715 17.0625C17.6842 18.3642 16.338 19.3491 14.7985 19.8961C13.259 20.4431 11.5932 20.5283 10.0059 20.1414C8.41858 19.7544 6.97891 18.9121 5.86384 17.718C4.74877 16.5239 4.0069 15.03 3.72941 13.4199C3.45192 11.8098 3.6509 10.1537 4.3019 8.65524C4.9529 7.15674 6.02755 5.8811 7.39375 4.98511C8.75996 4.08912 10.3582 3.61183 11.992 3.61191C12.092 3.61191 12.324 3.61192 12.432 3.61792L12.429 2.7569Z" fill="white"/>
<path d="M31.3539 4.68509H28.0339V19.0641H38.2339V16.2641H31.3539V4.68509ZM45.5399 13.5851H48.2399V16.0991C47.4653 16.353 46.6551 16.4813 45.8399 16.4791C42.8509 16.4791 41.8559 14.9601 41.8559 11.8791C41.8559 8.93709 42.8039 7.20407 45.7929 7.20407C46.4405 7.14983 47.0912 7.26074 47.6843 7.5264C48.2773 7.79205 48.7933 8.20378 49.1839 8.72308L51.2479 6.82309C49.9899 5.02309 47.7839 4.4751 45.7209 4.4751C41.0709 4.4751 38.6289 7.0151 38.6289 11.8541C38.6289 16.6701 40.8339 19.2801 45.6979 19.2801C47.6583 19.342 49.5973 18.8573 51.2979 17.8801V10.9041H45.5399V13.5851Z" fill="#6D6E71"/>
<path d="M77.511 4.65788V1.03589H74.838V4.65788H71.306V7.21291H74.838V10.7929H77.511V7.21291H81.067V4.65788H77.511Z" fill="#6D6E71"/>
<path d="M65.765 4.67505V12.981C65.765 15.281 64.625 16.406 62.697 16.406C60.769 16.406 59.629 15.277 59.629 12.981V4.67505H56.37V13.032C56.37 17.566 58.782 19.268 62.58 19.268H62.813C66.613 19.268 69.024 17.568 69.024 13.032V4.67603L65.765 4.67505Z" fill="#6D6E71"/>
</svg>
