<svg width="22" height="22" viewBox="0 0 22 22" fill="none" xmlns="http://www.w3.org/2000/svg">
<path d="M10.305 3C9.34502 2.99795 8.39422 3.1871 7.50812 3.55641C6.62202 3.92572 5.81835 4.46779 5.14398 5.151C3.77241 6.53655 3.00299 8.40739 3.00299 10.357C3.00299 12.3066 3.77241 14.1774 5.14398 15.563C5.81975 16.2445 6.62375 16.7854 7.50964 17.1545C8.39553 17.5236 9.34577 17.7137 10.3055 17.7137C11.2652 17.7137 12.2154 17.5236 13.1013 17.1545C13.9872 16.7854 14.7912 16.2445 15.467 15.563C16.1366 14.9064 16.6669 14.1214 17.026 13.255V13.242C17.5623 11.8501 17.7031 10.337 17.433 8.87C17.1077 7.21728 16.2185 5.7288 14.9175 4.65889C13.6165 3.58898 11.9844 3.00403 10.3 3.004M10.3 1.004C11.5235 1.00299 12.7351 1.24473 13.8646 1.71523C14.9941 2.18573 16.019 2.87564 16.8799 3.745C18.1714 5.06496 19.0502 6.73272 19.4088 8.54426C19.7674 10.3558 19.5903 12.2326 18.899 13.945C18.441 15.0837 17.7537 16.1161 16.8799 16.978C16.0184 17.8464 14.9934 18.5357 13.8642 19.0061C12.7349 19.4765 11.5238 19.7187 10.3005 19.7187C9.07718 19.7187 7.866 19.4765 6.73676 19.0061C5.60751 18.5357 4.5825 17.8464 3.72095 16.978C1.97512 15.2184 0.995483 12.8402 0.995483 10.3615C0.995483 7.8828 1.97512 5.50456 3.72095 3.745C4.58204 2.87439 5.60745 2.18344 6.73767 1.71223C7.86789 1.24101 9.08048 0.998927 10.305 1L10.3 1.004Z" fill="black"/>
<path d="M16.322 16.322L21 21" stroke="black" stroke-width="2" stroke-linecap="round" stroke-linejoin="round"/>
</svg>
